<?xml version="1.0" standalone="no"?><!DOCTYPE svg PUBLIC "-//W3C//DTD SVG 1.1//EN" "http://www.w3.org/Graphics/SVG/1.1/DTD/svg11.dtd"><svg class="icon" width="200px" height="200.00px" viewBox="0 0 1024 1024" version="1.1" xmlns="http://www.w3.org/2000/svg"><path d="M512 812.086857h-73.142857V903.314286h-91.428572v-91.227429h-23.862857V811.885714H237.714286v-91.428571h85.851428V310.857143H237.714286v-91.428572h109.714285V128h91.428572v91.428571h73.142857V128h91.428571v91.428571h-21.942857c111.323429 0 181.138286 57.088 181.138286 147.858286 0 64.896-48.457143 119.113143-111.305143 128.548572v3.291428c80.493714 6.162286 139.648 64.896 139.648 143.341714 0 100.937143-73.453714 165.357714-192.841143 169.417143H603.428571v91.428572h-91.428571v-91.227429z m-64.384-500.242286v154.020572h89.124571c66.121143 0 103.899429-29.165714 103.899429-79.268572 0-47.652571-33.28-74.752-91.172571-74.752h-101.851429z m0 407.826286h106.788571c71.460571 0 110.061714-30.390857 110.061715-87.058286 0-55.460571-39.844571-85.028571-112.950857-85.028571H447.634286v172.086857z" fill="#d81e06" /></svg>